<svg width="18" height="19" viewBox="0 0 18 19" fill="none" xmlns="http://www.w3.org/2000/svg">
<path d="M3.54 2.36365C3.6 3.25365 3.75 4.12365 3.99 4.95365L2.79 6.15365C2.38 4.95365 2.12 3.68365 2.03 2.36365H3.54ZM13.4 14.3836C14.25 14.6236 15.12 14.7736 16 14.8336V16.3236C14.68 16.2336 13.41 15.9736 12.2 15.5736L13.4 14.3836ZM4.5 0.363647H1C0.45 0.363647 0 0.813647 0 1.36365C0 10.7536 7.61 18.3636 17 18.3636C17.55 18.3636 18 17.9136 18 17.3636V13.8736C18 13.3236 17.55 12.8736 17 12.8736C15.76 12.8736 14.55 12.6736 13.43 12.3036C13.33 12.2636 13.22 12.2536 13.12 12.2536C12.86 12.2536 12.61 12.3536 12.41 12.5436L10.21 14.7436C7.38 13.2936 5.06 10.9836 3.62 8.15365L5.82 5.95365C6.1 5.67365 6.18 5.28365 6.07 4.93365C5.7 3.81365 5.5 2.61365 5.5 1.36365C5.5 0.813647 5.05 0.363647 4.5 0.363647Z" fill="#FF9933"/>
</svg>
