<svg width="16" height="17" viewBox="0 0 16 17" fill="none" xmlns="http://www.w3.org/2000/svg">
<path d="M8 2.26365C9.16 2.26365 10.1 3.20365 10.1 4.36365C10.1 5.52365 9.16 6.46365 8 6.46365C6.84 6.46365 5.9 5.52365 5.9 4.36365C5.9 3.20365 6.84 2.26365 8 2.26365ZM8 11.2636C10.97 11.2636 14.1 12.7236 14.1 13.3636V14.4636H1.9V13.3636C1.9 12.7236 5.03 11.2636 8 11.2636ZM8 0.363647C5.79 0.363647 4 2.15365 4 4.36365C4 6.57365 5.79 8.36365 8 8.36365C10.21 8.36365 12 6.57365 12 4.36365C12 2.15365 10.21 0.363647 8 0.363647ZM8 9.36365C5.33 9.36365 0 10.7036 0 13.3636V16.3636H16V13.3636C16 10.7036 10.67 9.36365 8 9.36365Z" fill="#FF9933"/>
</svg>
