<svg width="32" height="32" viewBox="0 0 32 32" fill="none" xmlns="http://www.w3.org/2000/svg">
<circle cx="16" cy="16" r="15.5" stroke="#B9C2CB"/>
<path d="M12.64 22V21.216C13.664 20.192 14.5333 19.296 15.248 18.528C15.9627 17.7493 16.5067 17.0507 16.88 16.432C17.2533 15.8027 17.44 15.216 17.44 14.672C17.44 14.0853 17.28 13.6053 16.96 13.232C16.64 12.8587 16.1547 12.672 15.504 12.672C15.0773 12.672 14.6827 12.7947 14.32 13.04C13.9573 13.2747 13.6267 13.5627 13.328 13.904L12.576 13.152C13.0027 12.6827 13.456 12.3093 13.936 12.032C14.4267 11.744 15.0027 11.6 15.664 11.6C16.6133 11.6 17.36 11.8773 17.904 12.432C18.448 12.976 18.72 13.7013 18.72 14.608C18.72 15.248 18.5387 15.8987 18.176 16.56C17.824 17.2107 17.3333 17.8987 16.704 18.624C16.0853 19.3387 15.3707 20.1173 14.56 20.96C14.8373 20.9387 15.1253 20.9173 15.424 20.896C15.7227 20.8747 16.0053 20.864 16.272 20.864H19.232V22H12.64Z" fill="#252433"/>
</svg>
